<svg xmlns="http://www.w3.org/2000/svg" viewBox="0 0 1600 720" preserveAspectRatio="xMidYMid slice">
  <defs>
    <linearGradient id="sky" x1="0" y1="0" x2="0" y2="1">
      <stop offset="0" stop-color="#0B3D2F"/><stop offset=".55" stop-color="#176B4D"/><stop offset="1" stop-color="#8DBFA3"/>
    </linearGradient>
    <radialGradient id="sun" cx="1130" cy="430" r="260" gradientUnits="userSpaceOnUse">
      <stop offset="0" stop-color="#F6E3B4" stop-opacity=".95"/><stop offset=".25" stop-color="#E8C987" stop-opacity=".55"/><stop offset="1" stop-color="#E8C987" stop-opacity="0"/>
    </radialGradient>
    <pattern id="geo" width="90" height="90" patternUnits="userSpaceOnUse">
      <g fill="none" stroke="#EAF5EF" stroke-width="1" opacity=".07">
        <rect x="25" y="25" width="40" height="40"/><rect x="25" y="25" width="40" height="40" transform="rotate(45 45 45)"/>
      </g>
    </pattern>
  </defs>
  <rect width="1600" height="720" fill="url(#sky)"/>
  <rect width="1600" height="420" fill="url(#geo)"/>
  <circle cx="1130" cy="430" r="260" fill="url(#sun)"/>
  <circle cx="1130" cy="430" r="46" fill="#F7E7BF"/>
  <path d="M0 470 C220 420 420 450 620 430 S1000 380 1250 420 1500 440 1600 410 V720 H0Z" fill="#3E8A68" opacity=".55"/>
  <path d="M0 520 C260 470 520 520 760 490 S1180 450 1600 500 V720 H0Z" fill="#23704F"/>
  <path d="M0 600 C300 560 600 610 900 575 S1350 560 1600 590 V720 H0Z" fill="#155B41"/>
  <path d="M0 670 C340 640 700 690 1000 660 S1400 650 1600 670 V720 H0Z" fill="#0F4C3A"/>
  <path d="M760 720 C820 660 700 620 860 580 S1010 520 1080 470" fill="none" stroke="#E7C98A" stroke-width="6" stroke-linecap="round" stroke-dasharray="0 22" opacity=".95"/>
  <g fill="#F4DDA6"><circle cx="1015" cy="505" r="5"/><circle cx="1040" cy="492" r="4.5"/><circle cx="1062" cy="480" r="4"/><circle cx="1078" cy="471" r="3.4"/></g>
  <g fill="#EAF5EF" opacity=".7"><circle cx="300" cy="120" r="1.6"/><circle cx="520" cy="80" r="1.2"/><circle cx="760" cy="150" r="1.5"/><circle cx="980" cy="70" r="1.3"/><circle cx="1400" cy="130" r="1.6"/><circle cx="160" cy="230" r="1.1"/></g>
</svg>
