<svg xmlns="http://www.w3.org/2000/svg" width="1200" height="630" viewBox="0 0 1200 630"><rect width="1200" height="630" fill="#0F4C3A"/><g fill="none" stroke="#EAF5EF" opacity=".06" stroke-width="2"><rect x="850" y="120" width="300" height="300"/><rect x="850" y="120" width="300" height="300" transform="rotate(45 1000 270)"/></g><g transform="translate(420 135) scale(3)"><circle cx="60" cy="60" r="58" fill="#0F4C3A"/><g fill="none" stroke="#B58A3A" stroke-width="1.6"><rect x="27" y="27" width="66" height="66" rx="7"/><rect x="27" y="27" width="66" height="66" rx="7" transform="rotate(45 60 60)"/></g><path d="M60 25c22 15 26 44 0 70C34 69 38 40 60 25z" fill="#176B4D" stroke="#EAF5EF" stroke-width="1.4"/><path d="M60 92c-9-9 8-17 0-27s7-16 0-26" fill="none" stroke="#E7C98A" stroke-width="3.2" stroke-linecap="round" stroke-dasharray="0 6.5"/><circle cx="60" cy="33" r="4" fill="#F4DDA6"/></g></svg>
